<?xml version="1.0" encoding="UTF-8"?>
<svg id="Layer_1" xmlns="http://www.w3.org/2000/svg" version="1.1" viewBox="0 0 128 128">
  <!-- Generator: Adobe Illustrator 29.0.1, SVG Export Plug-In . SVG Version: 2.1.0 Build 192)  -->
  <defs>
    <style>
      .st0 {
        fill: none;
        stroke: #000;
        stroke-miterlimit: 10;
        stroke-width: 25px;
      }

      .st1 {
        fill: red;
      }

      .st2 {
        fill: #c00;
      }
    </style>
  </defs>
  <g>
    <path class="st1" d="M64,115.5c-28.4,0-51.5-23.1-51.5-51.5S35.6,12.5,64,12.5s51.5,23.1,51.5,51.5-23.1,51.5-51.5,51.5Z"/>
    <path class="st2" d="M64,25c21.5,0,39,17.5,39,39s-17.5,39-39,39-39-17.5-39-39S42.5,25,64,25M64,0C28.7,0,0,28.7,0,64s28.7,64,64,64,64-28.7,64-64S99.3,0,64,0h0Z"/>
  </g>
  <line class="st0" x1="64" y1="0" x2="64" y2="128"/>
</svg>